<svg width="29" height="28" viewBox="0 0 29 28" fill="none" xmlns="http://www.w3.org/2000/svg">
<path d="M16.4429 3.59124L18.3697 7.65793C18.6855 8.32367 19.2953 8.78506 20.0008 8.89193L24.3099 9.54414C26.0865 9.81296 26.796 12.0866 25.5103 13.3918L22.3912 16.5568C21.8808 17.0751 21.6479 17.8219 21.7683 18.5537L22.5044 23.0233C22.8082 24.8662 20.9506 26.2712 19.3621 25.4014L15.5078 23.2923C14.8768 22.9467 14.1228 22.9467 13.4917 23.2923L9.63747 25.4028C8.04891 26.2726 6.19138 24.866 6.49519 23.0247L7.23121 18.5551C7.35223 17.8229 7.11909 17.0755 6.60831 16.5568L3.49007 13.3914C2.20433 12.0862 2.91382 9.81261 4.69041 9.54378L8.99951 8.89157C9.70509 8.78469 10.3148 8.32326 10.6307 7.65757L12.5567 3.5913C13.3521 1.91402 15.6475 1.91397 16.4429 3.59124Z" fill="#DAE0E6"/>
</svg>
